<?xml version="1.0" standalone="no"?>
<!DOCTYPE svg PUBLIC "-//W3C//DTD SVG 1.1//EN" "http://www.w3.org/Graphics/SVG/1.1/DTD/svg11.dtd" >
<svg xmlns="http://www.w3.org/2000/svg">
<metadata></metadata>
<defs>
<font id="helveticaneuelt_pro_47_ltcnRg" horiz-adv-x="872" >
<font-face units-per-em="2048" ascent="1462" descent="-586" />
<missing-glyph horiz-adv-x="491" />
<glyph unicode="&#xfb01;" d="M14 985v102h150v130q0 129 41 186q53 76 196 76q55 0 78 -6v-103q-27 6 -59 6q-133 0 -133 -159v-130h192v-102h-192v-985h-123v985h-150zM623 0v1087h122v-1087h-122zM623 1253v209h122v-209h-122z" />
<glyph unicode="&#xfb02;" d="M14 985v102h150v130q0 129 41 186q53 76 196 76q55 0 78 -6v-103q-27 6 -59 6q-133 0 -133 -159v-130h192v-102h-192v-985h-123v985h-150zM623 0v1462h122v-1462h-122z" />
<glyph horiz-adv-x="0" />
<glyph unicode="&#xd;" horiz-adv-x="0" />
<glyph horiz-adv-x="1024" />
<glyph horiz-adv-x="1024" />
<glyph unicode=" "  horiz-adv-x="491" />
<glyph unicode="&#x09;" horiz-adv-x="491" />
<glyph unicode="&#xa0;" horiz-adv-x="491" />
<glyph unicode="!" horiz-adv-x="491" d="M176 0v209h139v-209h-139zM176 999v463h139v-463l-24 -618h-90z" />
<glyph unicode="&#x22;" horiz-adv-x="720" d="M145 971v491h123v-491h-123zM453 971v491h122v-491h-122z" />
<glyph unicode="#" horiz-adv-x="983" d="M6 463v90h238l41 319h-226v91h238l61 462h103l-62 -462h250l62 462h102l-61 -462h225v-91h-238l-41 -319h226v-90h-238l-61 -463h-103l62 463h-250l-62 -463h-102l61 463h-225zM346 553h250l41 319h-250z" />
<glyph unicode="$" horiz-adv-x="983" d="M59 399v41h131v-53q0 -279 259 -301v602q-86 27 -134 47q-70 29 -116 68q-115 94 -115 270q0 348 365 377v145h90v-145q346 -27 346 -389h-131q0 254 -215 278v-559l139 -47q74 -31 123 -69q123 -94 123 -271q0 -381 -385 -418v-170h-90v170q-389 23 -390 424zM215 1085 q0 -113 68 -182q55 -55 166 -92v528q-233 -25 -234 -254zM539 86q254 29 254 287q0 117 -76 188q-55 53 -178 96v-571z" />
<glyph unicode="%" horiz-adv-x="1478" d="M109 1073q-1 211 67 299q59 78 191 78q131 0 190 -78q68 -88 68 -299t-68 -299q-59 -78 -190 -78t-191 78q-68 88 -67 299zM219 1073q0 -155 41 -225q35 -61 107 -62q72 0 108 62q39 70 39 225q0 287 -147 287t-148 -287zM373 -25l628 1475h103l-629 -1475h-102zM854 352 q0 211 68 299q59 78 190 78t191 -78q68 -88 67 -299q0 -211 -67 -299q-59 -78 -191 -78q-131 0 -190 78q-68 88 -68 299zM965 352q0 -155 41 -225q35 -61 106 -61q72 0 109 61q39 70 39 225q0 287 -148 287q-147 0 -147 -287z" />
<glyph unicode="&#x26;" horiz-adv-x="1099" d="M45 362q0 211 211 377l121 92q-86 115 -123 191q-45 90 -45 170q0 127 88 201q82 70 211 69q281 0 280 -270q0 -96 -51 -178q-59 -94 -207 -199l316 -442q27 63 41 139q10 61 12 137h123q0 -197 -102 -379l192 -270h-139l-129 178q-135 -203 -389 -203q-184 0 -299 115 q-111 109 -111 272zM176 377q0 -127 88 -211q84 -80 209 -80q211 0 307 184l-342 480q-145 -100 -209 -197q-53 -84 -53 -176zM332 1196q0 -109 137 -297q111 82 160 164q37 63 37 133q0 164 -166 164q-168 0 -168 -164z" />
<glyph unicode="'" horiz-adv-x="491" d="M184 971v491h123v-491h-123z" />
<glyph unicode="(" horiz-adv-x="454" d="M111 543q0 229 59 444q68 240 213 475h88q-238 -412 -238 -919q0 -508 238 -920h-88q-145 238 -213 475q-59 215 -59 445z" />
<glyph unicode=")" horiz-adv-x="454" d="M-16 -377q238 412 237 920q0 508 -237 919h88q145 -236 213 -475q59 -215 59 -444t-59 -445q-68 -238 -213 -475h-88z" />
<glyph unicode="*" horiz-adv-x="684" d="M53 1219l27 86l217 -70v227h90v-227l217 70l27 -86l-215 -70l133 -184l-74 -54l-133 185l-133 -185l-74 54l133 184z" />
<glyph unicode="+" horiz-adv-x="1228" d="M96 467v102h467v467h103v-467h467v-102h-467v-467h-103v467h-467z" />
<glyph unicode="," horiz-adv-x="491" d="M164 -201q70 41 72 201h-60v209h139v-209q0 -102 -28 -168q-37 -80 -123 -115v82z" />
<glyph unicode="-" horiz-adv-x="681" d="M119 526v111h444v-111h-444z" />
<glyph unicode="." horiz-adv-x="491" d="M176 0v209h139v-209h-139z" />
<glyph unicode="/" horiz-adv-x="569" d="M-20 -25l499 1512h111l-500 -1512h-110z" />
<glyph unicode="0" horiz-adv-x="983" d="M84 713q0 172 16 295q20 139 64 233q96 209 328 209q231 0 327 -209q43 -94 64 -233q16 -123 16 -295t-16 -295q-20 -139 -64 -234q-96 -209 -327 -209t-328 209q-43 94 -64 234q-16 123 -16 295zM215 713q1 -347 64 -492q63 -143 213 -143t213 143q63 145 63 492 q0 346 -63 491q-63 143 -213 144q-150 0 -213 -144q-63 -145 -64 -491z" />
<glyph unicode="1" horiz-adv-x="983" d="M139 1110v90q348 2 361 250h94v-1450h-123v1110h-332z" />
<glyph unicode="2" horiz-adv-x="983" d="M90 0q0 172 78 307q70 121 225 252l156 131q201 170 201 361q0 297 -256 297q-254 0 -267 -353h-131q10 455 410 455q160 0 262 -92q113 -106 113 -301q0 -135 -50 -232q-55 -102 -190 -215l-158 -129q-225 -184 -254 -370h664v-111h-803z" />
<glyph unicode="3" horiz-adv-x="983" d="M78 387h131q0 -135 67 -219q72 -90 207 -90q123 0 199 76q86 86 86 258q0 291 -289 290h-96v103h68q274 0 274 270q0 272 -240 273q-254 0 -256 -299h-131q0 401 387 401q168 0 269 -96q102 -96 102 -262q0 -270 -233 -328v-4q276 -45 276 -344q0 -201 -106 -318 q-109 -123 -310 -123q-389 0 -405 412z" />
<glyph unicode="4" horiz-adv-x="983" d="M66 373v123l559 954h123v-967h170v-110h-170v-373h-123v373h-559zM176 483h449v758h-4z" />
<glyph unicode="5" horiz-adv-x="983" d="M84 371h131q0 -127 70 -207q72 -86 198 -86q285 0 285 416q0 160 -68 254q-74 102 -215 102q-190 0 -249 -168h-123l84 743h634v-110h-536l-64 -506l5 -4q39 76 120 115q72 33 160 32q174 0 275 -118q109 -127 108 -361q0 -225 -108 -358q-115 -139 -322 -140 q-172 0 -276 103q-109 106 -109 293z" />
<glyph unicode="6" horiz-adv-x="983" d="M78 674q0 188 20 321q23 147 70 246q104 209 352 209q168 0 260 -96q90 -90 94 -244h-131q-10 238 -229 238q-154 0 -225 -150q-76 -156 -80 -510l4 -4q76 238 311 238q184 0 285 -125q96 -119 96 -326q0 -217 -96 -350q-109 -145 -307 -146q-236 0 -334 179 q-90 160 -90 520zM233 449q1 -158 62 -256q70 -115 209 -115t211 115q59 98 59 256t-59 256q-72 115 -211 114q-139 0 -209 -114q-61 -98 -62 -256z" />
<glyph unicode="7" horiz-adv-x="983" d="M84 1315v110h815v-110q-113 -139 -209 -311q-88 -162 -155 -342q-129 -344 -156 -662h-139q16 301 170 678q154 383 366 637h-692z" />
<glyph unicode="8" horiz-adv-x="983" d="M84 410q0 137 63 235q74 111 199 123v4q-102 29 -162 123q-57 86 -57 197q0 172 102 268q98 90 263 90q166 0 262 -90q102 -94 102 -268q0 -111 -53 -197q-61 -94 -166 -123v-4q125 -12 199 -123q63 -98 63 -235q0 -203 -113 -320q-111 -115 -294 -115q-184 0 -295 115 q-113 119 -113 320zM215 399q0 -137 70 -225q74 -96 207 -96t206 96q70 88 70 225q0 139 -70 228q-74 96 -206 96q-133 0 -207 -96q-70 -88 -70 -228zM258 1085q1 -260 234 -260t233 260q0 262 -233 263q-233 0 -234 -263z" />
<glyph unicode="9" horiz-adv-x="983" d="M78 954q0 217 98 351q106 145 305 145q236 0 336 -178q88 -160 88 -520q0 -188 -20 -322q-23 -147 -70 -244q-104 -211 -352 -211q-168 0 -262 97q-90 90 -92 243h131q10 -238 229 -237q154 0 227 149q74 156 78 510l-4 4q-76 -238 -311 -237q-184 0 -285 125 q-96 119 -96 325zM209 977q0 -158 59 -256q72 -115 211 -115t209 115q61 98 62 256q0 158 -62 256q-70 115 -209 115t-211 -115q-59 -98 -59 -256z" />
<glyph unicode=":" horiz-adv-x="491" d="M176 0v209h139v-209h-139zM176 817v209h139v-209h-139z" />
<glyph unicode=";" horiz-adv-x="491" d="M164 -201q70 41 72 201h-60v209h139v-209q0 -102 -28 -168q-37 -80 -123 -115v82zM176 817v209h139v-209h-139z" />
<glyph unicode="&#x3c;" horiz-adv-x="1228" d="M96 463v110l1037 480v-111l-914 -424l914 -424v-110z" />
<glyph unicode="=" horiz-adv-x="1228" d="M96 268v103h1037v-103h-1037zM96 666v102h1037v-102h-1037z" />
<glyph unicode="&#x3e;" horiz-adv-x="1228" d="M96 -16v110l914 424l-914 424v111l1037 -480v-110z" />
<glyph unicode="?" d="M49 1040q0 199 94 320q102 127 291 127q170 0 271 -98q98 -98 98 -261q0 -88 -27 -157q-31 -84 -106 -164l-88 -94q-115 -121 -115 -277v-57h-123v72q0 186 135 327l86 92q55 59 84 131q23 63 23 129q0 111 -62 183q-66 72 -168 71q-262 0 -262 -344h-131zM336 0v209h139 v-209h-139z" />
<glyph unicode="@" horiz-adv-x="1638" d="M63 731q0 313 234 535q233 221 563 221q301 0 506 -178q209 -180 209 -451q0 -229 -160 -409q-152 -170 -325 -170q-141 0 -140 139h-4q-145 -139 -289 -139q-270 0 -270 301q0 225 139 405q150 193 361 193q166 0 229 -170h4l51 135h117l-209 -602q-27 -80 -26 -121 q0 -51 55 -51q131 0 250 168q115 162 115 327q0 233 -187 387q-178 145 -426 146q-295 0 -498 -201q-197 -195 -196 -465q0 -276 201 -471q203 -195 493 -194q168 0 324 75q160 78 239 207h123q-229 -373 -686 -373q-338 0 -567 222q-229 221 -230 534zM498 590 q0 -209 176 -209q154 0 272 178q106 160 107 320q0 197 -176 196q-156 0 -273 -168q-106 -156 -106 -317z" />
<glyph unicode="A" horiz-adv-x="1024" d="M-2 0l432 1462h164l432 -1462h-139l-119 426h-512l-119 -426h-139zM285 537h454l-225 823h-4z" />
<glyph unicode="B" horiz-adv-x="1024" d="M115 0v1462h403q205 0 303 -100q90 -92 90 -266q0 -258 -225 -318v-4q272 -53 272 -364q0 -410 -442 -410h-401zM246 111h243q338 0 338 299t-338 299h-243v-598zM246 819h207q327 0 327 264q0 268 -305 269h-229v-533z" />
<glyph unicode="C" horiz-adv-x="1062" d="M102 731q0 756 467 756q211 0 322 -135q98 -121 98 -316h-131q0 154 -74 244q-78 96 -215 96q-164 0 -245 -143q-90 -160 -91 -502q0 -342 91 -500q82 -145 245 -145q281 0 303 410h132q-29 -520 -435 -521q-467 0 -467 756z" />
<glyph unicode="D" horiz-adv-x="1099" d="M115 0v1462h352q305 0 426 -186q55 -88 82 -229q22 -122 22 -300v-16q0 -188 -22 -315q-27 -141 -82 -230q-121 -186 -426 -186h-352zM246 111h213q221 0 311 131q96 139 96 487q0 352 -96 492q-90 131 -311 131h-213v-1241z" />
<glyph unicode="E" horiz-adv-x="909" d="M115 0v1462h725v-110h-594v-533h555v-110h-555v-598h612v-111h-743z" />
<glyph unicode="F" d="M115 0v1462h725v-110h-594v-533h555v-110h-555v-709h-131z" />
<glyph unicode="G" horiz-adv-x="1099" d="M102 731q0 756 467 756q201 0 310 -123q98 -111 110 -311h-131q0 139 -74 227q-78 96 -215 96q-164 0 -245 -143q-90 -160 -91 -502q0 -342 91 -500q82 -145 245 -145q305 0 305 518v31h-346v110h469v-745h-102v242h-4q-76 -266 -322 -267q-467 0 -467 756z" />
<glyph unicode="H" horiz-adv-x="1062" d="M115 0v1462h131v-622h571v622h131v-1462h-131v729h-571v-729h-131z" />
<glyph unicode="I" horiz-adv-x="376" d="M123 0v1462h131v-1462h-131z" />
<glyph unicode="J" horiz-adv-x="833" d="M39 369v59h131v-35q0 -307 195 -307q115 0 165 59q57 68 58 236v1081h131v-1095q0 -391 -348 -392q-332 0 -332 394z" />
<glyph unicode="K" horiz-adv-x="983" d="M115 0v1462h131v-766h4l559 766h139l-446 -610l495 -852h-139l-438 741l-174 -229v-512h-131z" />
<glyph unicode="L" d="M115 0v1462h131v-1351h606v-111h-737z" />
<glyph unicode="M" horiz-adv-x="1404" d="M127 0v1462h227l353 -1298h4l352 1298h215v-1462h-131v1339h-4l-379 -1339h-123l-379 1339h-4v-1339h-131z" />
<glyph unicode="N" horiz-adv-x="1099" d="M115 0v1462h176l559 -1274h4v1274h131v-1462h-176l-559 1274h-4v-1274h-131z" />
<glyph unicode="O" horiz-adv-x="1138" d="M102 731q0 756 467 756t467 -756t-467 -756t-467 756zM233 731q1 -342 91 -500q82 -145 245 -145q164 0 246 145q90 158 90 500t-90 502q-82 143 -246 143t-245 -143q-90 -160 -91 -502z" />
<glyph unicode="P" horiz-adv-x="983" d="M115 0v1462h395q203 0 305 -114q96 -104 96 -299q0 -186 -96 -291q-115 -123 -350 -123h-219v-635h-131zM246 745h223q141 0 221 68q90 76 90 236q0 303 -311 303h-223v-607z" />
<glyph unicode="Q" horiz-adv-x="1138" d="M102 731q0 756 467 756t467 -756q0 -406 -133 -588l150 -143l-72 -78l-147 144q-106 -90 -265 -91q-467 0 -467 756zM233 731q0 -342 91 -500q82 -145 245 -145q106 0 185 66l-166 159l71 78l158 -153q88 160 88 495q0 342 -90 502q-82 143 -246 143t-245 -143 q-90 -160 -91 -502z" />
<glyph unicode="R" horiz-adv-x="1024" d="M115 0v1462h436q379 0 379 -366q0 -143 -60 -238q-68 -106 -204 -133v-4q242 -23 249 -346l5 -160q2 -72 12 -117q14 -59 49 -98h-154q-20 35 -30 92q-6 43 -9 113l-4 123q-8 201 -59 266q-59 74 -231 74h-248v-668h-131zM246 778h225q328 0 328 287q0 143 -68 211 q-76 76 -246 76h-239v-574z" />
<glyph unicode="S" horiz-adv-x="983" d="M57 410v43h131v-56q0 -311 291 -311q315 0 316 297q0 145 -111 221q-43 31 -113 58q-27 10 -65 22l-66 23q-82 27 -131 49q-68 31 -112 69q-111 96 -111 275q0 174 107 280q109 106 296 107q397 0 398 -400h-131q0 289 -262 289q-129 0 -205 -76q-72 -74 -72 -186 q0 -143 111 -221q43 -33 112 -59l131 -46q84 -29 131 -49q68 -31 113 -69q111 -94 111 -267q0 -209 -121 -321q-117 -106 -322 -107q-426 0 -426 435z" />
<glyph unicode="T" horiz-adv-x="909" d="M12 1352v110h885v-110h-377v-1352h-131v1352h-377z" />
<glyph unicode="U" horiz-adv-x="1024" d="M94 410v1052h131v-1050q0 -326 287 -326t287 326v1050h131v-1052q0 -434 -418 -435q-418 0 -418 435z" />
<glyph unicode="V" horiz-adv-x="946" d="M6 1462h139l326 -1323h4l326 1323h139l-385 -1462h-164z" />
<glyph unicode="W" horiz-adv-x="1478" d="M23 1462h131l256 -1286h4l250 1286h151l250 -1286h4l256 1286h131l-309 -1462h-164l-242 1286h-4l-241 -1286h-164z" />
<glyph unicode="X" horiz-adv-x="946" d="M-2 0l401 745l-374 717h139l311 -594l316 594h131l-377 -717l403 -745h-139l-340 629l-340 -629h-131z" />
<glyph unicode="Y" horiz-adv-x="909" d="M-6 1462h139l322 -729l321 729h139l-395 -876v-586h-131v586z" />
<glyph unicode="Z" horiz-adv-x="946" d="M45 0v123l713 1229h-672v110h805v-123l-701 -1228h711v-111h-856z" />
<glyph unicode="[" horiz-adv-x="493" d="M170 -377v1839h324v-102h-201v-1634h201v-103h-324z" />
<glyph unicode="\" horiz-adv-x="569" d="M-20 1487h110l500 -1512h-111z" />
<glyph unicode="]" horiz-adv-x="493" d="M0 -274h201v1634h-201v102h324v-1839h-324v103z" />
<glyph unicode="^" horiz-adv-x="1228" d="M90 498l473 927h103l473 -927h-111l-414 805l-413 -805h-111z" />
<glyph unicode="_" horiz-adv-x="1024" d="M0 -154h1024v-102h-1024v102z" />
<glyph unicode="`" horiz-adv-x="380" d="M-20 1513h145l154 -288h-99z" />
<glyph unicode="a" d="M61 283q0 240 220 301l231 65q66 16 86 47q18 33 18 125q0 188 -188 189q-209 0 -209 -246h-123q0 348 336 348q160 0 238 -80q70 -72 69 -209v-643q0 -90 64 -90h35v-90q-33 -12 -58 -12q-158 0 -157 135v37h-5q-35 -100 -112 -146q-66 -39 -168 -39q-276 0 -277 308z M193 291q0 -213 172 -213q252 0 251 307v229h-4q-10 -25 -53 -45q-16 -8 -39 -14l-141 -39q-186 -49 -186 -225z" />
<glyph unicode="b" horiz-adv-x="909" d="M106 0v1462h123v-538h4q43 188 254 188q348 0 349 -567q0 -569 -349 -570q-213 0 -266 205h-4v-180h-111zM229 545q0 -276 72 -385q55 -82 166 -82t166 82q72 111 72 385t-72 383q-55 82 -166 82t-166 -82q-72 -109 -72 -383z" />
<glyph unicode="c" horiz-adv-x="833" d="M61 545q0 567 375 567q313 0 336 -348h-123q-20 246 -213 246q-115 0 -172 -88q-71 -111 -71 -372v-7q0 -147 20 -246q18 -88 53 -139q51 -80 158 -80q193 0 225 282h123q-31 -385 -346 -385q-178 0 -268 131q-96 141 -97 439z" />
<glyph unicode="d" horiz-adv-x="909" d="M74 545q0 567 348 567q211 0 254 -188h4v538h123v-1462h-111v180h-4q-53 -205 -266 -205q-348 0 -348 570zM205 545q0 -274 74 -385q53 -82 163 -82q111 0 166 82q72 109 72 385q0 274 -72 383q-55 82 -166 82t-163 -82q-74 -109 -74 -383z" />
<glyph unicode="e" d="M74 545q0 567 375 567q350 0 350 -528v-45h-594v-52q0 -219 69 -321q59 -88 162 -88q199 0 230 282h122q-31 -385 -350 -385q-178 0 -268 131q-96 141 -96 439zM205 641h463q-8 369 -232 369q-229 0 -231 -369z" />
<glyph unicode="f" horiz-adv-x="493" d="M14 985v102h150v130q0 129 41 186q53 76 196 76q55 0 78 -6v-103q-27 6 -59 6q-133 0 -133 -159v-130h192v-102h-192v-985h-123v985h-150z" />
<glyph unicode="g" horiz-adv-x="909" d="M74 545q0 567 348 567q193 0 254 -192h4v167h111v-1009q0 -455 -357 -455q-319 0 -323 266h122q0 -74 62 -120q57 -43 143 -43q229 0 230 297v172h-4q-57 -195 -254 -195q-147 0 -232 109q-49 66 -76 167q-28 107 -28 259v10zM205 557q0 -249 61 -358q53 -96 170 -97 q117 0 172 97q59 109 60 358q0 248 -60 356q-55 96 -172 97q-117 0 -170 -97q-61 -109 -61 -356z" />
<glyph unicode="h" horiz-adv-x="909" d="M119 0v1462h123v-526h4q47 176 266 176q279 0 279 -291v-821h-123v786q0 223 -187 224q-240 0 -239 -279v-731h-123z" />
<glyph unicode="i" horiz-adv-x="376" d="M127 0v1087h123v-1087h-123zM127 1253v209h123v-209h-123z" />
<glyph unicode="j" horiz-adv-x="376" d="M-53 -268l22 -2q14 -4 25 -4q133 0 133 188v1173h123v-1214q0 -131 -68 -195q-61 -55 -168 -55q-37 0 -67 6v103zM127 1253v209h123v-209h-123z" />
<glyph unicode="k" horiz-adv-x="833" d="M106 0v1462h123v-915h4l422 540h152l-328 -403l387 -684h-151l-324 573l-162 -192v-381h-123z" />
<glyph unicode="l" horiz-adv-x="376" d="M127 0v1462h123v-1462h-123z" />
<glyph unicode="m" horiz-adv-x="1404" d="M127 0v1087h111v-151h4q82 176 276 176q199 0 227 -190h5q76 190 276 190q252 0 252 -281v-831h-123v813q0 197 -170 197q-94 0 -156 -76q-66 -78 -65 -203v-731h-123v813q0 197 -170 197q-94 0 -156 -76q-66 -78 -65 -203v-731h-123z" />
<glyph unicode="n" horiz-adv-x="909" d="M119 0v1087h110v-151h4q90 176 279 176q279 0 279 -291v-821h-123v786q0 223 -187 224q-240 0 -239 -279v-731h-123z" />
<glyph unicode="o" d="M61 545q0 567 375 567t375 -567q0 -569 -375 -570q-375 0 -375 570zM193 545v-7q0 -243 69 -358q61 -102 174 -102t174 102q70 117 70 365q0 246 -70 362q-61 102 -174 103q-113 0 -174 -103q-69 -115 -69 -355v-7z" />
<glyph unicode="p" horiz-adv-x="909" d="M106 -360v1447h111v-155h4q70 180 268 180q346 0 347 -569q0 -567 -349 -568q-211 0 -254 189h-4v-524h-123zM229 543q0 -274 72 -383q55 -82 166 -82t166 82q72 109 72 383q0 270 -72 381q-55 86 -162 86q-106 0 -172 -97q-70 -96 -70 -370z" />
<glyph unicode="q" horiz-adv-x="909" d="M74 543q0 569 346 569q199 0 268 -180h4v155h111v-1447h-123v524h-4q-43 -188 -254 -189q-348 0 -348 568zM205 543q0 -274 74 -383q53 -82 163 -82q111 0 166 82q72 109 72 383t-70 370q-66 96 -172 97q-106 0 -162 -86q-71 -109 -71 -374v-7z" />
<glyph unicode="r" horiz-adv-x="569" d="M119 0v1087h123v-169h4q74 194 272 194h2q23 0 43 -6v-123q-31 6 -59 6q-111 0 -182 -76q-80 -84 -80 -233v-680h-123z" />
<glyph unicode="s" horiz-adv-x="796" d="M63 313v35h123v-29q0 -241 207 -241h2q215 0 215 194q0 141 -147 201l-172 68q-209 80 -209 258q0 160 92 239q84 74 232 74q299 0 299 -303v-31h-123v31q0 201 -179 201q-198 0 -198 -183q0 -65 28 -104q33 -47 119 -80l178 -68q203 -76 203 -276q0 -145 -82 -231 q-88 -92 -254 -93q-334 0 -334 338z" />
<glyph unicode="t" horiz-adv-x="493" d="M14 985v102h150v302h123v-302h192v-102h-192v-780q0 -115 116 -115q37 0 76 12v-102q-20 -12 -86 -12q-229 0 -229 190v807h-150z" />
<glyph unicode="u" horiz-adv-x="909" d="M119 266v821h123v-765q0 -244 188 -244q238 0 238 278v731h123v-1087h-111v152h-4q-90 -176 -279 -177q-279 0 -278 291z" />
<glyph unicode="v" horiz-adv-x="757" d="M14 1087h131l242 -948h4l221 948h131l-286 -1087h-140z" />
<glyph unicode="w" horiz-adv-x="1212" d="M20 1087h132l184 -964h4l197 964h151l184 -964h5l184 964h131l-242 -1087h-145l-197 965h-4l-196 -965h-146z" />
<glyph unicode="x" horiz-adv-x="757" d="M12 0l293 561l-280 526h139l215 -430l215 430h139l-280 -526l292 -561h-139l-227 467l-227 -467h-140z" />
<glyph unicode="y" horiz-adv-x="757" d="M14 1087h131l244 -942h4l219 942h131l-317 -1175q-45 -160 -104 -215q-59 -57 -185 -57q-23 0 -43 2l-39 2v102l41 -2q20 -2 39 -2q117 0 162 145l31 103z" />
<glyph unicode="z" horiz-adv-x="720" d="M37 0v102l516 883h-490v102h621v-102l-516 -883h516v-102h-647z" />
<glyph unicode="{" horiz-adv-x="493" d="M68 492v102q68 0 94 55q25 55 24 209v359q0 246 220 245h104v-102h-102q-98 0 -99 -139v-381q2 -266 -139 -295v-4q141 -29 139 -295v-381q0 -139 99 -139h102v-103h-104q-219 0 -220 246v358q0 154 -24 209q-27 55 -94 56z" />
<glyph unicode="|" horiz-adv-x="454" d="M176 -25v1512h103v-1512h-103z" />
<glyph unicode="}" horiz-adv-x="493" d="M-16 -274h102q98 0 98 139v381q-2 266 140 295v4q-141 29 -140 295v381q0 139 -98 139h-102v102h104q219 0 219 -245v-359q0 -154 27 -209q25 -55 92 -55v-102q-68 0 -92 -56q-27 -55 -27 -209v-358q0 -246 -219 -246h-104v103z" />
<glyph unicode="~" horiz-adv-x="1228" d="M141 463q37 78 95 121q70 55 161 55q82 0 228 -66q160 -74 209 -73q86 0 180 147l73 -74q-127 -176 -256 -176q-86 0 -208 68q-135 72 -236 72q-61 0 -106 -48q-35 -35 -66 -100z" />
<glyph unicode="&#xa1;" horiz-adv-x="491" d="M176 111l25 618h90l24 -618v-463h-139v463zM176 901v209h139v-209h-139z" />
<glyph unicode="&#xa2;" horiz-adv-x="983" d="M135 545q0 539 340 567v170h62v-170q289 -20 311 -348h-123q-20 225 -188 246v-932q160 33 188 282h123q-27 -350 -311 -385v-170h-62v170q-340 16 -340 570zM266 543q0 -260 66 -373q49 -86 143 -92v932q-98 -14 -147 -107q-61 -115 -62 -360z" />
<glyph unicode="&#xa3;" horiz-adv-x="983" d="M41 88q256 184 256 410q0 84 -43 170h-201v90h166l-69 133q-53 102 -54 196q0 170 123 271q115 92 291 92q186 0 295 -117q104 -113 104 -301h-123q-14 315 -284 316q-119 0 -195 -66q-80 -68 -80 -182q0 -106 82 -250l49 -92h310v-90h-275q35 -55 35 -150 q0 -219 -240 -407l5 -5q51 25 79 35q43 14 80 15q10 0 27 -4q12 -2 33 -9l39 -12q10 -4 20 -6q10 -4 21 -6l81 -23q41 -10 68 -10q59 0 123 29q51 25 123 73l55 -94q-129 -119 -317 -119q-33 0 -78 13l-41 12q-10 2 -21 6l-10 4q-2 2 -10 4l-43 15q-23 8 -41 12 q-45 12 -80 12q-55 0 -119 -26l-63 -31q-10 -4 -15 -8z" />
<glyph unicode="&#xa4;" horiz-adv-x="983" d="M41 713q0 154 100 280l-96 97l72 73l96 -96q123 96 279 96q162 0 280 -98l96 98l72 -73l-96 -97q98 -117 98 -280q0 -156 -96 -279l94 -96l-72 -76l-96 100q-127 -100 -280 -100q-158 0 -281 98l-94 -98l-72 76l96 96q-100 127 -100 279zM152 713q0 -148 104 -250 q100 -98 236 -98q135 0 235 98q104 102 104 250q0 147 -104 250q-100 98 -235 98t-236 -98q-104 -102 -104 -250z" />
<glyph unicode="&#xa5;" horiz-adv-x="983" d="M31 1425h139l322 -704l321 704h139l-331 -710h223v-90h-264l-23 -50v-129h287v-90h-287v-356h-131v356h-287v90h287v129l-23 50h-264v90h223z" />
<glyph unicode="&#xa6;" horiz-adv-x="454" d="M176 -25v553h103v-553h-103zM176 934v553h103v-553h-103z" />
<glyph unicode="&#xa7;" horiz-adv-x="985" d="M72 690q0 88 63 170q59 76 148 111q-127 92 -127 229q0 131 102 211q96 76 244 76q328 0 327 -305h-122q0 203 -211 202q-209 0 -209 -178q0 -96 157 -198l271 -177q199 -127 198 -303q0 -186 -192 -284q123 -98 123 -242q0 -133 -90 -219q-92 -90 -250 -90 q-162 0 -260 90q-94 86 -94 221v41h122q0 -250 228 -250q213 0 213 187q0 125 -170 235l-246 158q-225 147 -225 315zM195 698q0 -109 172 -219l270 -176q154 72 154 232q0 102 -138 190l-293 190q-166 -88 -165 -217z" />
<glyph unicode="&#xa8;" horiz-adv-x="380" d="M-25 1264v209h123v-209h-123zM283 1264v209h123v-209h-123z" />
<glyph unicode="&#xa9;" horiz-adv-x="1638" d="M63 731q1 314 222 535t534 221t535 -221q221 -221 221 -535q0 -313 -221 -534t-535 -222q-313 0 -534 222q-221 221 -222 534zM166 731q-1 -271 192 -461q190 -193 461 -192q270 0 463 192q190 190 191 461q0 270 -191 463q-193 190 -463 190t-461 -190 q-193 -193 -192 -463zM387 731q0 211 119 342q123 135 332 135q154 0 258 -80q113 -86 131 -233h-111q-47 211 -278 211q-162 0 -254 -109q-86 -102 -86 -266q0 -154 90 -262q98 -115 256 -115q229 0 272 221h111q-80 -324 -383 -323q-205 0 -332 139q-125 133 -125 340z " />
<glyph unicode="&#xaa;" horiz-adv-x="567" d="M10 944q0 152 162 195l152 39q68 18 67 90q0 92 -123 92q-135 0 -135 -127h-102q0 217 239 217q223 0 224 -174v-379q0 -55 41 -55h22v-78q-27 -12 -70 -12q-92 0 -92 82v28h-4q-39 -111 -182 -110q-199 0 -199 192zM121 956q0 -115 106 -114q164 0 164 180v106h-4 q-6 -14 -33 -26l-26 -10q-6 0 -13 -2l-79 -21q-115 -29 -115 -113z" />
<glyph unicode="&#xab;" horiz-adv-x="757" d="M117 520v123l256 285v-140l-183 -206l183 -207v-139zM385 520v123l256 285v-140l-182 -206l182 -207v-139z" />
<glyph unicode="&#xac;" horiz-adv-x="1228" d="M96 666v102h1037v-547h-103v445h-934z" />
<glyph unicode="&#xad;" horiz-adv-x="681" d="M119 526v111h444v-111h-444z" />
<glyph unicode="&#xae;" horiz-adv-x="1638" d="M63 731q1 314 222 535t534 221t535 -221q221 -221 221 -535q0 -313 -221 -534t-535 -222q-313 0 -534 222q-221 221 -222 534zM166 731q-1 -271 192 -461q190 -193 461 -192q270 0 463 192q190 190 191 461q0 270 -191 463q-193 190 -463 190t-461 -190 q-193 -193 -192 -463zM535 283v899h346q293 0 293 -250q0 -111 -68 -176q-57 -55 -158 -74l266 -399h-122l-267 399h-188v-399h-102zM637 772h221q100 0 152 33q61 39 61 129q0 86 -65 125q-55 33 -148 33h-221v-320z" />
<glyph unicode="&#xaf;" horiz-adv-x="380" d="M-53 1323v90h487v-90h-487z" />
<glyph unicode="&#xb0;" horiz-adv-x="819" d="M117 1157q0 123 86 209q84 84 207 84t208 -84q84 -86 84 -209t-84 -207q-86 -86 -208 -86q-123 0 -207 86q-86 84 -86 207zM207 1157q0 -86 59 -143q57 -59 144 -60q86 0 145 60q57 57 57 143t-57 146q-59 57 -145 57t-144 -57q-59 -59 -59 -146z" />
<glyph unicode="&#xb1;" horiz-adv-x="1228" d="M96 0v102h1037v-102h-1037zM96 582v102h467v352h103v-352h467v-102h-467v-353h-103v353h-467z" />
<glyph unicode="&#xb2;" horiz-adv-x="638" d="M49 1174q4 276 281 276q113 0 180 -55q76 -61 76 -181q0 -84 -29 -137q-33 -63 -121 -131l-102 -76q-143 -104 -168 -206h424v-91h-535q0 106 51 191q45 70 146 151l100 80q123 94 123 215q0 150 -153 150q-152 0 -162 -186h-111z" />
<glyph unicode="&#xb3;" horiz-adv-x="638" d="M41 809h111q0 -61 43 -109q47 -51 120 -51q70 0 117 41q55 49 55 133q0 162 -188 162h-55v90h37q178 0 178 142q0 143 -144 143q-150 0 -153 -152h-111q0 242 264 242q254 0 254 -215q0 -166 -151 -199v-4q180 -23 180 -207q0 -266 -283 -266q-264 0 -274 250z" />
<glyph unicode="&#xb4;" horiz-adv-x="380" d="M102 1225l154 288h145l-200 -288h-99z" />
<glyph unicode="&#xb5;" horiz-adv-x="909" d="M119 -360v1447h123v-765q0 -244 188 -244q238 0 238 278v731h123v-1087h-111v152h-4q-90 -176 -279 -177q-119 0 -151 50h-4v-385h-123z" />
<glyph unicode="&#xb6;" horiz-adv-x="985" d="M61 1057q0 193 109 301q104 104 279 104h372v-1745h-102v1655h-219v-1655h-103v967q-137 0 -235 109q-100 111 -101 264z" />
<glyph unicode="&#xb7;" horiz-adv-x="491" d="M133 672q0 112 113 112t112 -112q0 -113 -112 -113q-113 0 -113 113z" />
<glyph unicode="&#xb8;" horiz-adv-x="380" d="M4 -375l25 64q61 -31 123 -31q141 0 141 90q0 74 -109 74q-57 0 -90 -21l-26 35l116 164h76l-88 -113l4 -2q23 10 70 11q158 0 157 -138q0 -78 -73 -129q-63 -45 -144 -45q-109 0 -182 41z" />
<glyph unicode="&#xb9;" horiz-adv-x="638" d="M74 1229v74q229 2 239 147h93v-877h-111v656h-221z" />
<glyph unicode="&#xba;" horiz-adv-x="567" d="M18 1102q1 348 265 348q266 0 266 -348q0 -350 -266 -350q-264 0 -265 350zM129 1102q0 -260 154 -260q156 0 155 260q0 258 -155 258q-154 0 -154 -258z" />
<glyph unicode="&#xbb;" horiz-adv-x="757" d="M117 236v139l182 207l-182 206v140l256 -285v-123zM385 236v139l182 207l-182 206v140l256 -285v-123z" />
<glyph unicode="&#xbc;" horiz-adv-x="1476" d="M74 1229v74q229 2 239 147h93v-877h-111v656h-221zM184 -61l924 1548h102l-923 -1548h-103zM780 225v74l361 578h123v-578h110v-74h-110v-225h-103v225h-381zM870 299h291v438h-4z" />
<glyph unicode="&#xbd;" horiz-adv-x="1476" d="M74 1229v74q229 2 239 147h93v-877h-111v656h-221zM123 -61l924 1548h102l-924 -1548h-102zM805 600q4 276 280 277q113 0 181 -56q76 -61 75 -180q0 -84 -28 -137q-33 -63 -121 -131l-102 -76q-143 -104 -168 -207h424v-90h-535q0 106 51 190q45 70 146 152l100 80 q123 94 123 215q0 150 -154 149q-152 0 -162 -186h-110z" />
<glyph unicode="&#xbe;" horiz-adv-x="1476" d="M41 809h111q0 -61 43 -109q47 -51 120 -51q70 0 117 41q55 49 55 133q0 162 -188 162h-55v90h37q178 0 178 142q0 143 -144 143q-150 0 -153 -152h-111q0 242 264 242q254 0 254 -215q0 -166 -151 -199v-4q180 -23 180 -207q0 -266 -283 -266q-264 0 -274 250zM246 -61 l923 1548h103l-924 -1548h-102zM780 225v74l361 578h123v-578h110v-74h-110v-225h-103v225h-381zM870 299h291v438h-4z" />
<glyph unicode="&#xbf;" d="M70 -18q0 88 26 157q31 84 107 164l88 94q115 121 115 277v57h122v-72q0 -184 -135 -327l-86 -92q-55 -59 -84 -131q-23 -63 -22 -129q0 -111 63 -181q63 -74 166 -73q262 0 262 344h131q0 -199 -94 -318q-102 -129 -291 -129q-170 0 -270 101q-98 98 -98 258zM397 901 v209h140v-209h-140z" />
<glyph unicode="&#xc0;" horiz-adv-x="1024" d="M-2 0l432 1462h164l432 -1462h-139l-119 426h-512l-119 -426h-139zM285 537h454l-225 823h-4zM293 1849h145l154 -288h-98z" />
<glyph unicode="&#xc1;" horiz-adv-x="1024" d="M-2 0l432 1462h164l432 -1462h-139l-119 426h-512l-119 -426h-139zM285 537h454l-225 823h-4zM432 1581l154 289h145l-201 -289h-98z" />
<glyph unicode="&#xc2;" horiz-adv-x="1024" d="M-2 0l432 1462h164l432 -1462h-139l-119 426h-512l-119 -426h-139zM252 1581l197 289h122l197 -289h-123l-135 205l-135 -205h-123zM285 537h454l-225 823h-4z" />
<glyph unicode="&#xc3;" horiz-adv-x="1024" d="M-2 0l432 1462h164l432 -1462h-139l-119 426h-512l-119 -426h-139zM238 1599q4 72 47 134q47 68 108 67q51 0 117 -37l53 -30q35 -23 62 -23q33 0 53 37q18 31 18 61h90q0 -70 -43 -131q-47 -70 -114 -69q-53 0 -101 30l-77 43q-37 16 -50 17q-57 0 -73 -99h-90zM285 537 h454l-225 823h-4z" />
<glyph unicode="&#xc4;" horiz-adv-x="1024" d="M-2 0l432 1462h164l432 -1462h-139l-119 426h-512l-119 -426h-139zM285 537h454l-225 823h-4zM297 1599v209h123v-209h-123zM604 1599v209h123v-209h-123z" />
<glyph unicode="&#xc5;" horiz-adv-x="1024" d="M-2 0l432 1462h164l432 -1462h-139l-119 426h-512l-119 -426h-139zM285 537h454l-225 823h-4zM317 1704q1 80 58 137q57 55 137 55t137 -55q57 -57 58 -137q0 -80 -58 -137q-57 -55 -137 -56q-195 0 -195 193zM391 1704q0 -121 121 -121t121 121t-121 121t-121 -121z" />
<glyph unicode="&#xc6;" horiz-adv-x="1441" d="M-16 0l594 1462h808v-110h-575v-533h537v-110h-537v-598h594v-111h-725v426h-391l-166 -426h-139zM330 537h350v815h-21z" />
<glyph unicode="&#xc7;" horiz-adv-x="1062" d="M102 731q0 756 467 756q211 0 322 -135q98 -121 98 -316h-131q0 154 -74 244q-78 96 -215 96q-164 0 -245 -143q-90 -160 -91 -502q0 -342 91 -500q82 -145 245 -145q281 0 303 410h132q-16 -254 -125 -387q-100 -119 -269 -132l-69 -90l4 -2q23 10 69 11q158 0 158 -138 q0 -78 -74 -129q-63 -45 -143 -45q-109 0 -182 41l24 64q61 -31 123 -31q141 0 142 90q0 74 -109 74q-57 0 -90 -21l-27 35l101 141q-203 12 -314 179q-121 182 -121 575z" />
<glyph unicode="&#xc8;" horiz-adv-x="909" d="M115 0v1462h725v-110h-594v-533h555v-110h-555v-598h612v-111h-743zM272 1870h146l153 -289h-98z" />
<glyph unicode="&#xc9;" horiz-adv-x="909" d="M115 0v1462h725v-110h-594v-533h555v-110h-555v-598h612v-111h-743zM418 1561l153 288h146l-201 -288h-98z" />
<glyph unicode="&#xca;" horiz-adv-x="909" d="M115 0v1462h725v-110h-594v-533h555v-110h-555v-598h612v-111h-743zM221 1581l197 289h123l196 -289h-123l-135 205l-135 -205h-123z" />
<glyph unicode="&#xcb;" horiz-adv-x="909" d="M115 0v1462h725v-110h-594v-533h555v-110h-555v-598h612v-111h-743zM256 1620v209h123v-209h-123zM563 1620v209h123v-209h-123z" />
<glyph unicode="&#xcc;" horiz-adv-x="376" d="M-49 1870h145l154 -289h-98zM123 0v1462h131v-1462h-131z" />
<glyph unicode="&#xcd;" horiz-adv-x="376" d="M123 0v1462h131v-1462h-131zM125 1581l154 289h145l-201 -289h-98z" />
<glyph unicode="&#xce;" horiz-adv-x="376" d="M-72 1581l197 289h123l196 -289h-122l-136 205l-135 -205h-123zM123 0v1462h131v-1462h-131z" />
<glyph unicode="&#xcf;" horiz-adv-x="376" d="M-27 1620v209h123v-209h-123zM123 0v1462h131v-1462h-131zM281 1620v209h122v-209h-122z" />
<glyph unicode="&#xd0;" horiz-adv-x="1099" d="M0 709v110h115v643h352q305 0 426 -186q55 -88 82 -229q23 -127 22 -316q0 -188 -22 -315q-27 -141 -82 -230q-121 -186 -426 -186h-352v709h-115zM246 111h213q221 0 311 131q96 139 96 487q0 352 -96 492q-90 131 -311 131h-213v-533h327v-110h-327v-598z" />
<glyph unicode="&#xd1;" horiz-adv-x="1099" d="M115 0v1462h176l559 -1274h4v1274h131v-1462h-176l-559 1274h-4v-1274h-131zM270 1599q4 72 47 134q47 68 109 67q51 0 117 -37l53 -30q35 -23 61 -23q33 0 54 37q18 31 18 61h90q0 -70 -43 -131q-47 -70 -114 -69q-53 0 -101 30l-78 43q-37 16 -49 17q-57 0 -74 -99h-90 z" />
<glyph unicode="&#xd2;" horiz-adv-x="1138" d="M102 731q0 756 467 756t467 -756t-467 -756t-467 756zM233 731q1 -342 91 -500q82 -145 245 -145q164 0 246 145q90 158 90 500t-90 502q-82 143 -246 143t-245 -143q-90 -160 -91 -502zM319 1870h146l153 -289h-98z" />
<glyph unicode="&#xd3;" horiz-adv-x="1138" d="M102 731q0 756 467 756t467 -756t-467 -756t-467 756zM233 731q1 -342 91 -500q82 -145 245 -145q164 0 246 145q90 158 90 500t-90 502q-82 143 -246 143t-245 -143q-90 -160 -91 -502zM518 1581l154 289h145l-201 -289h-98z" />
<glyph unicode="&#xd4;" horiz-adv-x="1138" d="M102 731q0 756 467 756t467 -756t-467 -756t-467 756zM233 731q1 -342 91 -500q82 -145 245 -145q164 0 246 145q90 158 90 500t-90 502q-82 143 -246 143t-245 -143q-90 -160 -91 -502zM311 1581l197 289h123l196 -289h-122l-136 205l-135 -205h-123z" />
<glyph unicode="&#xd5;" horiz-adv-x="1138" d="M102 731q0 756 467 756t467 -756t-467 -756t-467 756zM233 731q1 -342 91 -500q82 -145 245 -145q164 0 246 145q90 158 90 500t-90 502q-82 143 -246 143t-245 -143q-90 -160 -91 -502zM299 1599q4 72 47 134q47 68 109 67q51 0 116 -37l54 -30q35 -23 61 -23 q33 0 53 37q18 31 19 61h90q0 -70 -43 -131q-47 -70 -115 -69q-53 0 -100 30l-78 43q-37 16 -49 17q-57 0 -74 -99h-90z" />
<glyph unicode="&#xd6;" horiz-adv-x="1138" d="M102 731q0 756 467 756t467 -756t-467 -756t-467 756zM233 731q1 -342 91 -500q82 -145 245 -145q164 0 246 145q90 158 90 500t-90 502q-82 143 -246 143t-245 -143q-90 -160 -91 -502zM352 1599v209h123v-209h-123zM659 1599v209h123v-209h-123z" />
<glyph unicode="&#xd7;" horiz-adv-x="1228" d="M152 129l391 389l-391 391l73 72l389 -389l390 389l73 -72l-391 -391l391 -389l-73 -72l-390 389l-389 -389z" />
<glyph unicode="&#xd8;" horiz-adv-x="1138" d="M102 731q0 756 467 756q147 0 242 -70l55 131l76 -28l-68 -162q162 -184 162 -627q0 -756 -467 -756q-141 0 -241 70l-56 -131l-75 33l67 159q-162 178 -162 625zM233 731q0 -330 84 -487l449 1054q-78 78 -197 78q-164 0 -245 -143q-90 -160 -91 -502zM375 164 q72 -78 194 -78q164 0 246 145q90 158 90 500q0 336 -84 488z" />
<glyph unicode="&#xd9;" horiz-adv-x="1024" d="M94 410v1052h131v-1050q0 -326 287 -326t287 326v1050h131v-1052q0 -434 -418 -435q-418 0 -418 435zM270 1870h146l153 -289h-98z" />
<glyph unicode="&#xda;" horiz-adv-x="1024" d="M94 410v1052h131v-1050q0 -326 287 -326t287 326v1050h131v-1052q0 -434 -418 -435q-418 0 -418 435zM430 1581l154 289h145l-201 -289h-98z" />
<glyph unicode="&#xdb;" horiz-adv-x="1024" d="M94 410v1052h131v-1050q0 -326 287 -326t287 326v1050h131v-1052q0 -434 -418 -435q-418 0 -418 435zM260 1581l197 289h123l196 -289h-123l-135 205l-135 -205h-123z" />
<glyph unicode="&#xdc;" horiz-adv-x="1024" d="M94 410v1052h131v-1050q0 -326 287 -326t287 326v1050h131v-1052q0 -434 -418 -435q-418 0 -418 435zM295 1599v209h123v-209h-123zM602 1599v209h123v-209h-123z" />
<glyph unicode="&#xdd;" horiz-adv-x="909" d="M-6 1462h139l322 -729l321 729h139l-395 -876v-586h-131v586zM401 1561l154 288h145l-200 -288h-99z" />
<glyph unicode="&#xde;" horiz-adv-x="983" d="M115 0v1462h131v-286h274q197 0 297 -115q94 -109 94 -299q0 -186 -96 -291q-115 -123 -350 -123h-219v-348h-131zM246 459h223q141 0 221 67q90 76 90 236t-90 235q-80 68 -221 68h-223v-606z" />
<glyph unicode="&#xdf;" horiz-adv-x="909" d="M106 0v1104q0 375 343 375q330 0 329 -338q0 -104 -47 -183q-57 -92 -166 -114v-4q158 -18 230 -152q29 -53 43 -123q10 -57 10 -123q0 -455 -393 -454q-49 0 -84 12v102q25 -12 67 -12q123 0 199 86q80 96 80 275q0 328 -291 327h-45v103h35q231 0 231 254 q0 242 -205 241q-100 0 -151 -61q-61 -72 -62 -223v-1092h-123z" />
<glyph unicode="&#xe0;" d="M61 283q0 240 220 301l231 65q66 16 86 47q18 33 18 125q0 188 -188 189q-209 0 -209 -246h-123q0 348 336 348q160 0 238 -80q70 -72 69 -209v-643q0 -90 64 -90h35v-90q-33 -12 -58 -12q-158 0 -157 135v37h-5q-35 -100 -112 -146q-66 -39 -168 -39q-276 0 -277 308z M193 291q0 -213 172 -213q252 0 251 307v229h-4q-10 -25 -53 -45q-16 -8 -39 -14l-141 -39q-186 -49 -186 -225zM233 1513h146l153 -288h-98z" />
<glyph unicode="&#xe1;" d="M61 283q0 240 220 301l231 65q66 16 86 47q18 33 18 125q0 188 -188 189q-209 0 -209 -246h-123q0 348 336 348q160 0 238 -80q70 -72 69 -209v-643q0 -90 64 -90h35v-90q-33 -12 -58 -12q-158 0 -157 135v37h-5q-35 -100 -112 -146q-66 -39 -168 -39q-276 0 -277 308z M193 291q0 -213 172 -213q252 0 251 307v229h-4q-10 -25 -53 -45q-16 -8 -39 -14l-141 -39q-186 -49 -186 -225zM379 1225l153 288h146l-201 -288h-98z" />
<glyph unicode="&#xe2;" d="M61 283q0 240 220 301l231 65q66 16 86 47q18 33 18 125q0 188 -188 189q-209 0 -209 -246h-123q0 348 336 348q160 0 238 -80q70 -72 69 -209v-643q0 -90 64 -90h35v-90q-33 -12 -58 -12q-158 0 -157 135v37h-5q-35 -100 -112 -146q-66 -39 -168 -39q-276 0 -277 308z M168 1225l197 288h122l197 -288h-123l-135 205l-135 -205h-123zM193 291q0 -213 172 -213q252 0 251 307v229h-4q-10 -25 -53 -45q-16 -8 -39 -14l-141 -39q-186 -49 -186 -225z" />
<glyph unicode="&#xe3;" d="M61 283q0 240 220 301l231 65q66 16 86 47q18 33 18 125q0 188 -188 189q-209 0 -209 -246h-123q0 348 336 348q160 0 238 -80q70 -72 69 -209v-643q0 -90 64 -90h35v-90q-33 -12 -58 -12q-158 0 -157 135v37h-5q-35 -100 -112 -146q-66 -39 -168 -39q-276 0 -277 308z M147 1264q4 72 48 133q47 68 108 67q51 0 117 -37l53 -30q35 -23 62 -23q33 0 53 37q18 31 18 62h90q0 -70 -43 -132q-47 -70 -114 -69q-53 0 -101 31l-78 43q-37 16 -49 16q-57 0 -73 -98h-91zM193 291q0 -213 172 -213q252 0 251 307v229h-4q-10 -25 -53 -45 q-16 -8 -39 -14l-141 -39q-186 -49 -186 -225z" />
<glyph unicode="&#xe4;" d="M61 283q0 240 220 301l231 65q66 16 86 47q18 33 18 125q0 188 -188 189q-209 0 -209 -246h-123q0 348 336 348q160 0 238 -80q70 -72 69 -209v-643q0 -90 64 -90h35v-90q-33 -12 -58 -12q-158 0 -157 135v37h-5q-35 -100 -112 -146q-66 -39 -168 -39q-276 0 -277 308z M193 291q0 -213 172 -213q252 0 251 307v229h-4q-10 -25 -53 -45q-16 -8 -39 -14l-141 -39q-186 -49 -186 -225zM211 1264v209h123v-209h-123zM518 1264v209h123v-209h-123z" />
<glyph unicode="&#xe5;" d="M61 283q0 240 220 301l231 65q66 16 86 47q18 33 18 125q0 188 -188 189q-209 0 -209 -246h-123q0 348 336 348q160 0 238 -80q70 -72 69 -209v-643q0 -90 64 -90h35v-90q-33 -12 -58 -12q-158 0 -157 135v37h-5q-35 -100 -112 -146q-66 -39 -168 -39q-276 0 -277 308z M193 291q0 -213 172 -213q252 0 251 307v229h-4q-10 -25 -53 -45q-16 -8 -39 -14l-141 -39q-186 -49 -186 -225zM231 1401q1 80 58 137q57 55 137 55t137 -55q57 -57 58 -137q0 -80 -58 -137q-57 -55 -137 -56q-195 0 -195 193zM305 1401q0 -121 121 -121t121 121t-121 121 t-121 -121z" />
<glyph unicode="&#xe6;" horiz-adv-x="1327" d="M61 283q0 244 269 311l147 39q104 31 105 160q0 217 -168 217q-195 0 -195 -246h-123q0 348 322 348q215 0 258 -176h4q59 176 254 176q332 0 332 -573h-561v-60q0 -401 213 -401q90 0 151 80q63 82 64 202h122q-23 -385 -333 -385q-211 0 -281 226h-4 q-61 -225 -299 -226q-276 0 -277 308zM193 291q0 -213 172 -213q84 0 145 63q72 78 72 217v228h-4q-20 -27 -93 -45l-127 -35q-166 -47 -165 -215zM705 641h430q0 193 -60 287q-55 82 -155 82q-98 0 -152 -82q-59 -92 -63 -287z" />
<glyph unicode="&#xe7;" horiz-adv-x="833" d="M61 545q0 567 375 567q313 0 336 -348h-123q-20 246 -213 246q-115 0 -172 -88q-72 -113 -71 -379q0 -147 20 -246q18 -88 53 -139q51 -80 158 -80q193 0 225 282h123q-14 -172 -104 -280q-82 -90 -205 -103l-70 -90l4 -2q23 10 70 11q158 0 158 -138q0 -78 -74 -129 q-63 -45 -143 -45q-109 0 -183 41l25 64q61 -31 123 -31q141 0 141 90q0 74 -108 74q-57 0 -91 -21l-26 35l100 141q-61 6 -117 29q-211 102 -211 539z" />
<glyph unicode="&#xe8;" d="M74 545q0 567 375 567q350 0 350 -528v-45h-594v-52q0 -219 69 -321q59 -88 162 -88q199 0 230 282h122q-31 -385 -350 -385q-178 0 -268 131q-96 141 -96 439zM205 641h463q-8 369 -232 369q-229 0 -231 -369zM242 1513h145l154 -288h-99z" />
<glyph unicode="&#xe9;" d="M74 545q0 567 375 567q350 0 350 -528v-45h-594v-52q0 -219 69 -321q59 -88 162 -88q199 0 230 282h122q-31 -385 -350 -385q-178 0 -268 131q-96 141 -96 439zM205 641h463q-8 369 -232 369q-229 0 -231 -369zM389 1225l154 288h145l-201 -288h-98z" />
<glyph unicode="&#xea;" d="M74 545q0 567 375 567q350 0 350 -528v-45h-594v-52q0 -219 69 -321q59 -88 162 -88q199 0 230 282h122q-31 -385 -350 -385q-178 0 -268 131q-96 141 -96 439zM184 1225l197 288h123l196 -288h-122l-136 205l-135 -205h-123zM205 641h463q-8 369 -232 369 q-229 0 -231 -369z" />
<glyph unicode="&#xeb;" d="M74 545q0 567 375 567q350 0 350 -528v-45h-594v-52q0 -219 69 -321q59 -88 162 -88q199 0 230 282h122q-31 -385 -350 -385q-178 0 -268 131q-96 141 -96 439zM205 641h463q-8 369 -232 369q-229 0 -231 -369zM225 1264v209h123v-209h-123zM532 1264v209h123v-209h-123z " />
<glyph unicode="&#xec;" horiz-adv-x="376" d="M-51 1522h145l154 -289h-98zM127 0v1087h123v-1087h-123z" />
<glyph unicode="&#xed;" horiz-adv-x="376" d="M127 0v1087h123v-1087h-123zM127 1225l154 288h145l-201 -288h-98z" />
<glyph unicode="&#xee;" horiz-adv-x="376" d="M-70 1225l197 288h123l196 -288h-122l-136 205l-135 -205h-123zM127 0v1087h123v-1087h-123z" />
<glyph unicode="&#xef;" horiz-adv-x="376" d="M-27 1264v209h123v-209h-123zM127 0v1087h123v-1087h-123zM281 1264v209h122v-209h-122z" />
<glyph unicode="&#xf0;" d="M61 532q0 268 99 416q94 139 254 139q125 0 200 -108l4 4q-109 184 -235 326l-141 -84l-78 65l151 90q-61 66 -149 140l96 65l80 -69q43 -41 76 -78l147 86l74 -62l-154 -92q76 -84 129 -164q61 -92 105 -186q92 -213 92 -475q0 -569 -375 -570q-375 0 -375 557zM193 532 q-1 -237 69 -352q61 -102 174 -102t174 102q70 115 70 352q0 238 -70 353q-61 100 -174 100t-174 -100q-70 -115 -69 -353z" />
<glyph unicode="&#xf1;" horiz-adv-x="909" d="M119 0v1087h110v-151h4q90 176 279 176q279 0 279 -291v-821h-123v786q0 223 -187 224q-240 0 -239 -279v-731h-123zM178 1264q4 72 47 133q47 68 109 67q51 0 117 -37l53 -30q35 -23 61 -23q33 0 53 37q18 31 19 62h90q0 -70 -43 -132q-47 -70 -115 -69q-53 0 -100 31 l-78 43q-37 16 -49 16q-57 0 -74 -98h-90z" />
<glyph unicode="&#xf2;" d="M61 545q0 567 375 567t375 -567q0 -569 -375 -570q-375 0 -375 570zM193 545q-1 -248 69 -365q61 -102 174 -102t174 102q70 117 70 365q0 246 -70 362q-61 102 -174 103q-113 0 -174 -103q-70 -117 -69 -362zM199 1513h145l154 -288h-99z" />
<glyph unicode="&#xf3;" d="M61 545q0 567 375 567t375 -567q0 -569 -375 -570q-375 0 -375 570zM193 545q-1 -248 69 -365q61 -102 174 -102t174 102q70 117 70 365q0 246 -70 362q-61 102 -174 103q-113 0 -174 -103q-70 -117 -69 -362zM371 1225l153 288h146l-201 -288h-98z" />
<glyph unicode="&#xf4;" d="M61 545q0 567 375 567t375 -567q0 -569 -375 -570q-375 0 -375 570zM176 1225l197 288h123l196 -288h-123l-135 205l-135 -205h-123zM193 545q-1 -248 69 -365q61 -102 174 -102t174 102q70 117 70 365q0 246 -70 362q-61 102 -174 103q-113 0 -174 -103 q-70 -117 -69 -362z" />
<glyph unicode="&#xf5;" d="M61 545q0 567 375 567t375 -567q0 -569 -375 -570q-375 0 -375 570zM160 1264q4 72 47 133q47 68 108 67q51 0 117 -37l53 -30q35 -23 62 -23q33 0 53 37q18 31 18 62h91q0 -70 -43 -132q-47 -70 -115 -69q-53 0 -100 31l-78 43q-37 16 -49 16q-57 0 -74 -98h-90z M193 545q-1 -248 69 -365q61 -102 174 -102t174 102q70 117 70 365q0 246 -70 362q-61 102 -174 103q-113 0 -174 -103q-70 -117 -69 -362z" />
<glyph unicode="&#xf6;" d="M61 545q0 567 375 567t375 -567q0 -569 -375 -570q-375 0 -375 570zM193 545q-1 -248 69 -365q61 -102 174 -102t174 102q70 117 70 365q0 246 -70 362q-61 102 -174 103q-113 0 -174 -103q-70 -117 -69 -362zM219 1264v209h123v-209h-123zM526 1264v209h123v-209h-123z " />
<glyph unicode="&#xf7;" horiz-adv-x="1228" d="M96 467v102h1037v-102h-1037zM502 96q-1 113 112 113t113 -113t-113 -112q-113 0 -112 112zM502 940q-1 113 112 113t113 -113t-113 -113t-112 113z" />
<glyph unicode="&#xf8;" d="M61 545q0 567 375 567q104 0 174 -45l56 133l77 -33l-65 -153q133 -137 133 -469q0 -569 -375 -570q-102 0 -174 48l-57 -136l-76 31l66 156q-133 139 -134 471zM193 545q0 -229 57 -338l315 754q-55 49 -129 49q-113 0 -174 -103q-70 -117 -69 -362zM307 129 q51 -51 129 -51q113 0 174 102q70 117 70 365q0 227 -57 336z" />
<glyph unicode="&#xf9;" horiz-adv-x="909" d="M119 266v821h123v-765q0 -244 188 -244q238 0 238 278v731h123v-1087h-111v152h-4q-90 -176 -279 -177q-279 0 -278 291zM223 1513h146l153 -288h-98z" />
<glyph unicode="&#xfa;" horiz-adv-x="909" d="M119 266v821h123v-765q0 -244 188 -244q238 0 238 278v731h123v-1087h-111v152h-4q-90 -176 -279 -177q-279 0 -278 291zM397 1225l154 288h145l-200 -288h-99z" />
<glyph unicode="&#xfb;" horiz-adv-x="909" d="M119 266v821h123v-765q0 -244 188 -244q238 0 238 278v731h123v-1087h-111v152h-4q-90 -176 -279 -177q-279 0 -278 291zM195 1225l196 288h123l197 -288h-123l-135 205l-136 -205h-122z" />
<glyph unicode="&#xfc;" horiz-adv-x="909" d="M119 266v821h123v-765q0 -244 188 -244q238 0 238 278v731h123v-1087h-111v152h-4q-90 -176 -279 -177q-279 0 -278 291zM238 1264v209h122v-209h-122zM545 1264v209h123v-209h-123z" />
<glyph unicode="&#xfd;" horiz-adv-x="757" d="M14 1087h131l244 -942h4l219 942h131l-317 -1175q-45 -160 -104 -215q-59 -57 -185 -57q-23 0 -43 2l-39 2v102l41 -2q20 -2 39 -2q117 0 162 145l31 103zM332 1225l153 288h146l-201 -288h-98z" />
<glyph unicode="&#xfe;" horiz-adv-x="909" d="M106 -360v1822h123v-555h4q53 205 254 205q348 0 349 -569q0 -567 -349 -568q-211 0 -254 189h-4v-524h-123zM229 543q0 -274 72 -383q55 -82 166 -82t166 82q72 109 72 383t-72 385q-55 82 -166 82t-166 -82q-72 -109 -72 -385z" />
<glyph unicode="&#xff;" horiz-adv-x="757" d="M14 1087h131l244 -942h4l219 942h131l-317 -1175q-45 -160 -104 -215q-59 -57 -185 -57q-23 0 -43 2l-39 2v102l41 -2q20 -2 39 -2q117 0 162 145l31 103zM176 1264v209h123v-209h-123zM483 1264v209h123v-209h-123z" />
<glyph unicode="&#x152;" horiz-adv-x="1593" d="M86 731q0 756 467 756q205 0 283 -144h4v119h694v-110h-563v-533h524v-110h-524v-598h581v-111h-712v131h-4q-63 -156 -283 -156q-467 0 -467 756zM217 731q0 -342 90 -500q82 -145 246 -145q287 0 287 399v521q0 209 -70 292q-63 78 -217 78q-164 0 -246 -143 q-90 -160 -90 -502z" />
<glyph unicode="&#x153;" horiz-adv-x="1441" d="M78 545q0 567 375 567q233 0 292 -227h5q61 227 282 227q332 0 332 -573h-561v-60q0 -401 213 -401q90 0 151 80q63 82 64 202h123q-23 -385 -334 -385q-100 0 -164 45q-78 55 -119 181h-4q-63 -225 -280 -226q-375 0 -375 570zM209 545q0 -246 70 -365q59 -102 165 -102 t166 102q70 119 70 365q0 244 -70 362q-59 102 -166 103q-106 0 -165 -103q-70 -119 -70 -362zM803 641h430q0 193 -59 287q-55 82 -156 82q-98 0 -152 -82q-59 -92 -63 -287z" />
<glyph unicode="&#x178;" horiz-adv-x="909" d="M-6 1462h139l322 -729l321 729h139l-395 -876v-586h-131v586zM240 1599v209h122v-209h-122zM547 1599v209h123v-209h-123z" />
<glyph unicode="&#x2c6;" horiz-adv-x="380" d="M-68 1225l197 288h123l197 -288h-123l-136 205l-135 -205h-123z" />
<glyph unicode="&#x2dc;" horiz-adv-x="380" d="M-84 1264q6 72 47 133q47 68 109 67q51 0 116 -37l54 -30q35 -23 61 -23q33 0 53 37q18 31 19 62h90q0 -70 -43 -132q-47 -70 -115 -69q-53 0 -100 31l-78 43q-37 16 -49 16q-57 0 -74 -98h-90z" />
<glyph unicode="&#x2000;" horiz-adv-x="948" />
<glyph unicode="&#x2001;" horiz-adv-x="1896" />
<glyph unicode="&#x2002;" horiz-adv-x="948" />
<glyph unicode="&#x2003;" horiz-adv-x="1896" />
<glyph unicode="&#x2004;" horiz-adv-x="632" />
<glyph unicode="&#x2005;" horiz-adv-x="474" />
<glyph unicode="&#x2006;" horiz-adv-x="316" />
<glyph unicode="&#x2007;" horiz-adv-x="316" />
<glyph unicode="&#x2008;" horiz-adv-x="237" />
<glyph unicode="&#x2009;" horiz-adv-x="379" />
<glyph unicode="&#x200a;" horiz-adv-x="105" />
<glyph unicode="&#x2010;" horiz-adv-x="681" d="M119 526v111h444v-111h-444z" />
<glyph unicode="&#x2011;" horiz-adv-x="681" d="M119 526v111h444v-111h-444z" />
<glyph unicode="&#x2012;" horiz-adv-x="681" d="M119 526v111h444v-111h-444z" />
<glyph unicode="&#x2013;" horiz-adv-x="1024" d="M0 526v111h1024v-111h-1024z" />
<glyph unicode="&#x2014;" horiz-adv-x="2048" d="M0 526v111h2048v-111h-2048z" />
<glyph unicode="&#x2018;" horiz-adv-x="491" d="M170 971v209q0 104 29 168q37 80 123 114v-82q-70 -41 -72 -200h59v-209h-139z" />
<glyph unicode="&#x2019;" horiz-adv-x="491" d="M170 971v82q70 41 72 200h-60v209h140v-209q0 -104 -29 -168q-37 -80 -123 -114z" />
<glyph unicode="&#x201a;" horiz-adv-x="491" d="M170 -201q70 41 72 201h-60v209h140v-209q0 -102 -29 -168q-37 -80 -123 -115v82z" />
<glyph unicode="&#x201c;" horiz-adv-x="720" d="M150 971v209q0 104 28 168q37 80 123 114v-82q-70 -41 -72 -200h60v-209h-139zM420 971v209q0 104 29 168q37 80 122 114v-82q-70 -41 -71 -200h59v-209h-139z" />
<glyph unicode="&#x201d;" horiz-adv-x="720" d="M150 971v82q70 41 71 200h-59v209h139v-209q0 -104 -29 -168q-37 -80 -122 -114zM420 971v82q70 41 72 200h-60v209h139v-209q0 -104 -28 -168q-37 -80 -123 -114z" />
<glyph unicode="&#x201e;" horiz-adv-x="720" d="M150 -201q70 41 71 201h-59v209h139v-209q0 -102 -29 -168q-37 -80 -122 -115v82zM420 -201q70 41 72 201h-60v209h139v-209q0 -102 -28 -168q-37 -80 -123 -115v82z" />
<glyph unicode="&#x2022;" horiz-adv-x="1024" d="M147 731q1 152 107 258t258 107q152 0 258 -107q106 -106 107 -258q0 -152 -107 -258q-106 -106 -258 -106t-258 106t-107 258z" />
<glyph unicode="&#x2026;" horiz-adv-x="2048" d="M272 0v209h140v-209h-140zM954 0v209h140v-209h-140zM1636 0v209h140v-209h-140z" />
<glyph unicode="&#x202f;" horiz-adv-x="379" />
<glyph unicode="&#x2039;" horiz-adv-x="493" d="M119 520v123l256 285v-140l-182 -206l182 -207v-139z" />
<glyph unicode="&#x203a;" horiz-adv-x="493" d="M119 236v139l182 207l-182 206v140l256 -285v-123z" />
<glyph unicode="&#x205f;" horiz-adv-x="474" />
<glyph unicode="&#x20ac;" horiz-adv-x="983" d="M29 569l37 111h100v115q0 10 2 16h-139l37 111h110q27 244 131 376q123 156 355 156q82 0 163 -24q70 -23 152 -68l-49 -113q-80 49 -131 70q-70 27 -144 27q-168 0 -252 -136q-35 -55 -57 -135q-16 -66 -27 -153h527l-37 -111h-498q-2 -6 -2 -16v-115h469l-39 -111h-428 q8 -100 23 -170q18 -94 51 -159q84 -162 270 -162q82 0 154 37q47 27 127 94v-150q-123 -84 -283 -84q-254 0 -370 179q-49 76 -78 188q-23 96 -33 227h-141z" />
<glyph unicode="&#x2122;" horiz-adv-x="2027" d="M86 1372v90h655v-90h-276v-754h-103v754h-276zM893 618v844h176l270 -684l263 684h176v-844h-103v754h-4l-305 -754h-61l-306 754h-4v-754h-102z" />
<glyph unicode="&#xe000;" horiz-adv-x="1085" d="M0 0v1085h1085v-1085h-1085z" />
</font>
</defs>
</svg>
